<svg width="100" height="100" viewBox="0 0 100 100" fill="none" xmlns="http://www.w3.org/2000/svg">
<g clip-path="url(#clip0_245_516)">
<path d="M100 0H0V100H100V0Z" fill="url(#paint0_linear_245_516)"/>
<path d="M37.0157 62.7494C30.1037 62.7494 24.4993 57.2649 24.4993 50.5C24.4993 43.7351 30.1037 38.25 37.0157 38.25C43.9277 38.25 49.5322 43.734 49.5322 50.5C49.5322 57.266 43.9283 62.7494 37.0157 62.7494ZM87 38.25V26C73.6068 26 62.6694 36.2949 61.9998 49.2421C61.3302 36.3049 50.4011 26.019 37.0146 26.019C23.1989 26.019 12 36.9798 12 50.5011C12 64.0224 23.1989 74.9832 37.0146 74.9832C50.3989 74.9832 61.328 64.6956 61.9998 51.7596C62.6683 64.7046 73.6057 75 87 75V62.7494C80.0991 62.7494 74.4857 57.2537 74.4857 50.5C74.4857 43.7463 80.0969 38.2506 87 38.25Z" fill="white"/>
</g>
<defs>
<linearGradient id="paint0_linear_245_516" x1="29.2035" y1="0" x2="150" y2="0" gradientUnits="userSpaceOnUse">
<stop stop-color="#3F86C5"/>
<stop offset="1" stop-color="#B8D3EA"/>
</linearGradient>
<clipPath id="clip0_245_516">
<rect width="100" height="100" fill="white"/>
</clipPath>
</defs>
</svg>
