<svg width="75" height="49" viewBox="0 0 75 49" fill="none" xmlns="http://www.w3.org/2000/svg">
<path d="M25.0157 36.7494C18.1037 36.7494 12.4993 31.2649 12.4993 24.5C12.4993 17.7351 18.1037 12.25 25.0157 12.25C31.9277 12.25 37.5322 17.734 37.5322 24.5C37.5322 31.266 31.9283 36.7494 25.0157 36.7494ZM75 12.25V0C61.6068 0 50.6694 10.2949 49.9998 23.2421C49.3302 10.3049 38.4011 0.019042 25.0146 0.019042C11.1989 0.019042 0 10.9798 0 24.5011C0 38.0224 11.1989 48.9832 25.0146 48.9832C38.3989 48.9832 49.328 38.6956 49.9998 25.7596C50.6683 38.7046 61.6057 49 75 49V36.7494C68.0991 36.7494 62.4857 31.2537 62.4857 24.5C62.4857 17.7463 68.0969 12.2506 75 12.25Z" fill="white"/>
</svg>
